<svg width="498" height="444" viewBox="0 0 498 444" fill="none" xmlns="http://www.w3.org/2000/svg">
<path d="M249.011 267.312C274.67 267.312 295.47 246.511 295.47 220.852C295.47 195.193 274.67 174.393 249.011 174.393C223.352 174.393 202.551 195.193 202.551 220.852C202.551 246.511 223.352 267.312 249.011 267.312Z" fill="#00D8FF"/>
<path fill-rule="evenodd" clip-rule="evenodd" d="M252.424 122.922C331.638 123.462 418.062 129.241 477.387 182.143C479.13 183.699 480.81 185.318 482.45 186.988C496.446 201.254 503.76 224.287 492.462 243.242C469.284 282.159 417.45 299.132 367.266 309.58C292.213 325.205 213.736 325.329 138.714 311.572C95.5433 303.645 51.3974 289.753 20.7184 260.693C8.77672 249.384 -1.43233 234.506 0.165427 217.947C2.75919 191.159 28.4582 173.968 50.0902 162.327C110.172 129.998 183.378 122.767 252.424 122.922ZM246.677 135.092C171.727 135.601 90.6047 140.384 32.7327 188.306C30.7096 189.976 28.7591 191.73 26.8812 193.566C25.6673 194.749 24.4949 195.983 23.364 197.249C13.2069 208.662 9.71047 226.994 19.297 240.7C28.9458 254.488 43.5954 264.438 58.6807 272.551C115.1 302.888 181.77 308.273 246.77 308.501C312.579 308.74 380.442 302.743 438.574 272.686C461.731 260.703 487.793 243.107 486.869 220.448C486.019 199.656 465.746 186.812 450.567 177.64C446.459 175.161 442.236 172.868 437.951 170.71C380.245 141.795 312.62 134.947 246.677 135.092Z" fill="#00D8FF"/>
<path fill-rule="evenodd" clip-rule="evenodd" d="M353.944 0.361735C382.922 1.09836 397.934 35.9378 399.916 61.6679C400.31 66.7828 400.456 71.9185 400.393 77.0541C400.331 82.6151 400.03 88.1762 399.543 93.7164C393.432 162.316 362.109 227.648 325.226 287.979C289.152 346.992 245.162 405.839 185.319 433.188C165.533 442.235 142.003 447.817 124.49 437.722C100.482 423.892 97.8568 391.543 98.303 367.006C98.4171 360.978 98.8113 354.95 99.4338 348.943C108.657 260.132 153.675 176.001 210.011 103.521C242.879 61.2321 281.983 19.2858 330.694 4.09675C338.361 1.70011 344.451 0.247609 353.944 0.361735ZM352.554 12.5213C318.534 13.0608 287.99 38.2722 260.942 64.4692C189.832 133.328 137.427 224.909 116.345 320.951C114.716 328.39 113.347 335.881 112.34 343.423C111.562 349.264 110.992 355.137 110.691 361.03C110.452 365.719 110.369 370.419 110.514 375.119C110.618 378.792 110.857 382.464 111.261 386.116C111.562 388.907 111.967 391.688 112.475 394.448C112.859 396.492 113.305 398.525 113.824 400.548C114.249 402.187 114.727 403.816 115.266 405.435C119.51 418.227 130.445 430.449 145.126 430.854C179.374 431.787 211.619 406.815 239.497 379.674C288.436 332.042 324.904 272.188 353.394 209.274C376.385 158.478 397.416 103.261 385.671 47.3503C385.225 45.2338 384.706 43.1381 384.115 41.0631C383.627 39.3719 383.077 37.7015 382.476 36.0519C377.911 23.6122 367.172 12.4902 352.554 12.5213Z" fill="#00D8FF"/>
<path fill-rule="evenodd" clip-rule="evenodd" d="M146.381 0.818305C183.358 1.53418 216.568 26.6314 246.054 54.7374C299.859 106.021 339.544 171.26 369.652 239.922C392.975 293.115 414.431 352.823 395.361 408.952C389.354 426.642 374.155 442.827 353.892 443.242C316.739 443.989 282.304 416.972 252.424 387.891C177.465 314.913 121.813 218.57 102.743 116.396C101.374 109.092 100.285 101.726 99.5375 94.3286C98.9254 88.2904 98.5415 82.2209 98.4378 76.1515C98.3548 71.2545 98.4585 66.3575 98.8009 61.4812C99.0291 58.2235 99.3611 54.9864 99.8073 51.7598C100.233 48.7303 100.772 45.7112 101.447 42.7231C101.893 40.7415 102.391 38.7806 102.961 36.8301C108.553 17.7089 123.099 0.673054 146.381 0.818305ZM144.98 12.9882C123.328 13.4655 113.419 38.9985 111.427 56.9162C111.023 60.589 110.774 64.2929 110.66 67.9968C110.514 72.7278 110.577 77.4692 110.815 82.2002C114.218 150.665 144.825 216.858 181.76 277.469C216.537 334.532 258.535 391.366 316.303 420.582C332.987 429.017 353.259 435.647 367.67 427.679C385.744 417.677 387.964 393.846 388.929 376.084C389.188 371.249 389.219 366.394 389.064 361.548C388.877 355.469 388.4 349.399 387.684 343.361C381.023 286.952 356.04 233.572 327.343 183.129C291.632 120.38 247.88 57.8396 185.962 25.1686C173.138 18.404 159.256 12.8741 144.98 12.9882Z" fill="#00D8FF"/>
</svg>
